<mxfile host="app.diagrams.net" modified="2023-09-14T13:59:29.445Z" agent="Mozilla/5.0 (Windows NT 10.0; Win64; x64) AppleWebKit/537.36 (KHTML, like Gecko) Chrome/116.0.0.0 Safari/537.36" etag="6cb0gyXXKlOBzV7LnEWP" version="21.7.5" type="github">
  <diagram id="R2lEEEUBdFMjLlhIrx00" name="Page-1">
    <mxGraphModel dx="1885" dy="562" grid="1" gridSize="10" guides="1" tooltips="1" connect="1" arrows="1" fold="1" page="1" pageScale="1" pageWidth="850" pageHeight="1100" math="0" shadow="0" extFonts="Permanent Marker^https://fonts.googleapis.com/css?family=Permanent+Marker">
      <root>
        <mxCell id="0" />
        <mxCell id="1" parent="0" />
        <mxCell id="wGgL6fx7y3L0gjrvrmUF-3" value="CATEGORIAS" style="swimlane;whiteSpace=wrap;html=1;direction=east;startSize=30;" vertex="1" parent="1">
          <mxGeometry x="250" y="360" width="220" height="160" as="geometry">
            <mxRectangle x="110" y="310" width="140" height="30" as="alternateBounds" />
          </mxGeometry>
        </mxCell>
        <mxCell id="wGgL6fx7y3L0gjrvrmUF-31" value="&lt;b&gt;NOME&lt;/b&gt;&lt;div style=&quot;text-align: justify;&quot;&gt;&lt;/div&gt;" style="text;html=1;align=center;verticalAlign=middle;resizable=0;points=[];autosize=1;strokeColor=none;fillColor=none;" vertex="1" parent="wGgL6fx7y3L0gjrvrmUF-3">
          <mxGeometry x="10" y="38" width="60" height="30" as="geometry" />
        </mxCell>
        <mxCell id="wGgL6fx7y3L0gjrvrmUF-8" value="USUÁRIOS" style="swimlane;whiteSpace=wrap;html=1;" vertex="1" parent="1">
          <mxGeometry x="-150" y="10" width="200" height="140" as="geometry" />
        </mxCell>
        <mxCell id="wGgL6fx7y3L0gjrvrmUF-9" value="&lt;div style=&quot;text-align: justify;&quot;&gt;&lt;b&gt;EMAIL&lt;/b&gt;&lt;/div&gt;&lt;div style=&quot;text-align: justify;&quot;&gt;&lt;b&gt;SENHA&lt;/b&gt;&lt;/div&gt;&lt;div style=&quot;text-align: justify;&quot;&gt;&lt;b&gt;NOME DE USUÁRIO&lt;/b&gt;&lt;/div&gt;&lt;div style=&quot;text-align: justify;&quot;&gt;&lt;b&gt;&lt;br&gt;&lt;/b&gt;&lt;/div&gt;&lt;div style=&quot;text-align: justify;&quot;&gt;&lt;b&gt;&lt;br&gt;&lt;/b&gt;&lt;/div&gt;" style="text;html=1;align=right;verticalAlign=middle;resizable=0;points=[];autosize=1;strokeColor=none;fillColor=none;" vertex="1" parent="wGgL6fx7y3L0gjrvrmUF-8">
          <mxGeometry y="25" width="140" height="90" as="geometry" />
        </mxCell>
        <mxCell id="wGgL6fx7y3L0gjrvrmUF-10" value="VÍDEOS" style="swimlane;whiteSpace=wrap;html=1;" vertex="1" parent="1">
          <mxGeometry x="300" y="20" width="200" height="210" as="geometry" />
        </mxCell>
        <mxCell id="wGgL6fx7y3L0gjrvrmUF-12" value="CANAL" style="swimlane;whiteSpace=wrap;html=1;" vertex="1" parent="1">
          <mxGeometry x="1010" y="410" width="200" height="140" as="geometry" />
        </mxCell>
        <mxCell id="wGgL6fx7y3L0gjrvrmUF-13" value="&lt;div style=&quot;text-align: justify;&quot;&gt;&lt;b&gt;NOME DO CANAL&lt;/b&gt;&lt;/div&gt;&lt;div style=&quot;text-align: justify;&quot;&gt;&lt;b&gt;POSTAGENS DO CANAL&lt;/b&gt;&lt;/div&gt;&lt;div style=&quot;text-align: justify;&quot;&gt;&lt;b&gt;VÍDEOS DO CANAL&lt;/b&gt;&lt;/div&gt;&lt;div style=&quot;text-align: justify;&quot;&gt;&lt;b&gt;INSCRITOS DO CANAL&lt;/b&gt;&lt;/div&gt;&lt;div style=&quot;text-align: justify;&quot;&gt;&lt;b&gt;CATEGORIA DO CANAL&lt;/b&gt;&lt;/div&gt;" style="text;html=1;align=center;verticalAlign=middle;resizable=0;points=[];autosize=1;strokeColor=none;fillColor=none;" vertex="1" parent="wGgL6fx7y3L0gjrvrmUF-12">
          <mxGeometry x="10" y="30" width="160" height="90" as="geometry" />
        </mxCell>
        <mxCell id="wGgL6fx7y3L0gjrvrmUF-35" value="COMENTÁRIOS" style="swimlane;fontStyle=0;childLayout=stackLayout;horizontal=1;startSize=26;horizontalStack=0;resizeParent=1;resizeParentMax=0;resizeLast=0;collapsible=1;marginBottom=0;align=center;fontSize=14;" vertex="1" parent="1">
          <mxGeometry x="-50" y="360" width="160" height="160" as="geometry" />
        </mxCell>
        <mxCell id="wGgL6fx7y3L0gjrvrmUF-36" value="DATA" style="text;strokeColor=none;fillColor=none;spacingLeft=4;spacingRight=4;overflow=hidden;rotatable=0;points=[[0,0.5],[1,0.5]];portConstraint=eastwest;fontSize=12;whiteSpace=wrap;html=1;" vertex="1" parent="wGgL6fx7y3L0gjrvrmUF-35">
          <mxGeometry y="26" width="160" height="30" as="geometry" />
        </mxCell>
        <mxCell id="wGgL6fx7y3L0gjrvrmUF-37" value="HORA" style="text;strokeColor=none;fillColor=none;spacingLeft=4;spacingRight=4;overflow=hidden;rotatable=0;points=[[0,0.5],[1,0.5]];portConstraint=eastwest;fontSize=12;whiteSpace=wrap;html=1;" vertex="1" parent="wGgL6fx7y3L0gjrvrmUF-35">
          <mxGeometry y="56" width="160" height="30" as="geometry" />
        </mxCell>
        <mxCell id="wGgL6fx7y3L0gjrvrmUF-38" value="GOSTEI&lt;br&gt;NÃO GOSTEI" style="text;strokeColor=none;fillColor=none;spacingLeft=4;spacingRight=4;overflow=hidden;rotatable=0;points=[[0,0.5],[1,0.5]];portConstraint=eastwest;fontSize=12;whiteSpace=wrap;html=1;" vertex="1" parent="wGgL6fx7y3L0gjrvrmUF-35">
          <mxGeometry y="86" width="160" height="74" as="geometry" />
        </mxCell>
        <mxCell id="wGgL6fx7y3L0gjrvrmUF-11" value="&lt;div style=&quot;text-align: justify;&quot;&gt;&lt;b style=&quot;background-color: initial;&quot;&gt;CANAL&lt;/b&gt;&lt;/div&gt;&lt;div style=&quot;text-align: justify;&quot;&gt;&lt;b style=&quot;background-color: initial;&quot;&gt;INSCRITOS DO CANAL&lt;/b&gt;&lt;/div&gt;&lt;div style=&quot;text-align: justify;&quot;&gt;&lt;b style=&quot;background-color: initial;&quot;&gt;TÍTULO DO VÍDEO&lt;/b&gt;&lt;br&gt;&lt;/div&gt;&lt;div style=&quot;text-align: justify;&quot;&gt;&lt;b&gt;DESCRIÇÃO&lt;/b&gt;&lt;/div&gt;&lt;div style=&quot;text-align: justify;&quot;&gt;&lt;b&gt;GOSTEI&lt;/b&gt;&lt;/div&gt;&lt;div style=&quot;text-align: justify;&quot;&gt;&lt;b&gt;NÃO GOSTEI&lt;/b&gt;&lt;/div&gt;&lt;div style=&quot;text-align: justify;&quot;&gt;&lt;b&gt;COMENTÁRIOS&lt;/b&gt;&lt;/div&gt;&lt;div style=&quot;text-align: justify;&quot;&gt;&lt;b&gt;DURAÇÃO DE VÍDEO&lt;/b&gt;&lt;/div&gt;&lt;div style=&quot;text-align: justify;&quot;&gt;&lt;b&gt;DATA&lt;/b&gt;&lt;/div&gt;&lt;div style=&quot;text-align: justify;&quot;&gt;&lt;b&gt;CATEGORIA&lt;/b&gt;&lt;/div&gt;&lt;div style=&quot;text-align: justify;&quot;&gt;&lt;b&gt;&lt;br&gt;&lt;/b&gt;&lt;/div&gt;&lt;div style=&quot;text-align: justify;&quot;&gt;&lt;b&gt;&lt;br&gt;&lt;/b&gt;&lt;/div&gt;&lt;div style=&quot;text-align: justify;&quot;&gt;&lt;b&gt;&lt;br&gt;&lt;/b&gt;&lt;/div&gt;" style="text;html=1;align=center;verticalAlign=middle;resizable=0;points=[];autosize=1;strokeColor=none;fillColor=none;" vertex="1" parent="1">
          <mxGeometry x="300" y="45" width="160" height="200" as="geometry" />
        </mxCell>
        <mxCell id="wGgL6fx7y3L0gjrvrmUF-44" value="" style="edgeStyle=entityRelationEdgeStyle;fontSize=12;html=1;endArrow=ERoneToMany;rounded=0;entryX=-0.009;entryY=0.077;entryDx=0;entryDy=0;entryPerimeter=0;" edge="1" parent="1" target="wGgL6fx7y3L0gjrvrmUF-11">
          <mxGeometry width="100" height="100" relative="1" as="geometry">
            <mxPoint x="50" y="100" as="sourcePoint" />
            <mxPoint x="150" as="targetPoint" />
          </mxGeometry>
        </mxCell>
        <mxCell id="wGgL6fx7y3L0gjrvrmUF-50" value="ACESSA" style="edgeLabel;html=1;align=center;verticalAlign=middle;resizable=0;points=[];" vertex="1" connectable="0" parent="wGgL6fx7y3L0gjrvrmUF-44">
          <mxGeometry x="0.0327" y="-1" relative="1" as="geometry">
            <mxPoint as="offset" />
          </mxGeometry>
        </mxCell>
        <mxCell id="wGgL6fx7y3L0gjrvrmUF-45" value="" style="edgeStyle=entityRelationEdgeStyle;fontSize=12;html=1;endArrow=ERmany;startArrow=ERmany;rounded=0;entryX=-0.031;entryY=0.065;entryDx=0;entryDy=0;entryPerimeter=0;exitX=1;exitY=0.75;exitDx=0;exitDy=0;" edge="1" parent="1" source="wGgL6fx7y3L0gjrvrmUF-8">
          <mxGeometry width="100" height="100" relative="1" as="geometry">
            <mxPoint x="-80" y="200" as="sourcePoint" />
            <mxPoint x="-54.9599999999998" y="420.4" as="targetPoint" />
          </mxGeometry>
        </mxCell>
        <mxCell id="wGgL6fx7y3L0gjrvrmUF-51" value="FAZEM" style="edgeLabel;html=1;align=center;verticalAlign=middle;resizable=0;points=[];" vertex="1" connectable="0" parent="wGgL6fx7y3L0gjrvrmUF-45">
          <mxGeometry x="-0.1014" y="2" relative="1" as="geometry">
            <mxPoint x="1" as="offset" />
          </mxGeometry>
        </mxCell>
        <mxCell id="wGgL6fx7y3L0gjrvrmUF-54" value="" style="edgeStyle=entityRelationEdgeStyle;fontSize=12;html=1;endArrow=ERmany;startArrow=ERmany;rounded=0;exitX=1.009;exitY=0.083;exitDx=0;exitDy=0;exitPerimeter=0;entryX=-0.017;entryY=0.265;entryDx=0;entryDy=0;entryPerimeter=0;" edge="1" parent="1" source="wGgL6fx7y3L0gjrvrmUF-35" target="wGgL6fx7y3L0gjrvrmUF-11">
          <mxGeometry width="100" height="100" relative="1" as="geometry">
            <mxPoint x="90" y="320" as="sourcePoint" />
            <mxPoint x="190" y="220" as="targetPoint" />
          </mxGeometry>
        </mxCell>
        <mxCell id="wGgL6fx7y3L0gjrvrmUF-56" value="" style="edgeStyle=entityRelationEdgeStyle;fontSize=12;html=1;endArrow=ERmany;startArrow=ERmany;rounded=0;entryX=-0.017;entryY=0.765;entryDx=0;entryDy=0;entryPerimeter=0;" edge="1" parent="1">
          <mxGeometry width="100" height="100" relative="1" as="geometry">
            <mxPoint x="470" y="460" as="sourcePoint" />
            <mxPoint x="297.2800000000002" y="210" as="targetPoint" />
          </mxGeometry>
        </mxCell>
        <mxCell id="wGgL6fx7y3L0gjrvrmUF-57" value="TEM" style="edgeLabel;html=1;align=center;verticalAlign=middle;resizable=0;points=[];" vertex="1" connectable="0" parent="wGgL6fx7y3L0gjrvrmUF-56">
          <mxGeometry x="0.0023" y="2" relative="1" as="geometry">
            <mxPoint as="offset" />
          </mxGeometry>
        </mxCell>
      </root>
    </mxGraphModel>
  </diagram>
</mxfile>
